ply
format ascii 1.0
comment Created by Blender 2.81 (sub 16) - www.blender.org, source file: ''
element vertex 108
property float x
property float y
property float z
element face 196
property list uchar uint vertex_indices
end_header
-1.375288 -0.372027 0.435101
-0.728211 -0.372027 -0.435101
-0.728211 -0.372027 0.435101
-0.728211 0.498175 -0.435101
-1.375288 0.498175 0.435101
-0.728212 0.498175 0.435101
-1.375288 -0.372027 -0.435101
-1.375288 0.498175 -0.435101
-0.602348 -2.208959 -0.140831
-1.489493 -2.279374 -0.121963
-1.489493 -2.208959 -0.140831
-0.602348 -2.279374 -0.121963
-1.489493 -2.330922 -0.070415
-0.602348 -2.330922 -0.070415
-1.489493 -2.349790 0.000000
-0.602348 -2.349790 0.000000
-1.489493 -2.330922 0.070415
-0.602348 -2.330922 0.070416
-1.489493 -2.279374 0.121963
-0.602348 -2.279374 0.121963
-1.489493 -2.208959 0.140831
-0.602348 -2.208959 0.140831
-1.489493 -2.138544 0.121963
-0.602348 -2.138544 0.121963
-1.489493 -2.086996 0.070415
-0.602348 -2.086996 0.070416
-1.489493 -2.068128 0.000000
-0.602348 -2.068128 0.000000
-1.489493 -2.086996 -0.070415
-0.602348 -2.086996 -0.070415
-0.602348 -2.138544 -0.121963
-1.489493 -2.138544 -0.121963
-1.258414 -1.791972 -0.275292
-0.833425 -1.791972 0.275292
-0.833425 -1.791972 -0.275292
-1.258414 -2.283651 -0.275292
-0.833425 -2.386915 -0.200226
-1.258414 -2.386915 -0.200226
-0.833425 -2.283651 -0.275292
-1.258414 -1.791972 0.275292
-1.258414 -2.283651 0.275292
-0.833425 -2.283651 0.275292
-1.258414 -2.386915 0.200226
-0.833425 -2.461278 0.072785
-0.833425 -2.386915 0.200226
-0.833425 -2.461278 -0.072785
-1.258414 -2.461278 0.072785
-1.258414 -2.461278 -0.072785
-1.213377 -1.081456 0.000000
-1.189065 -0.110164 0.090733
-1.213377 -0.110164 0.000000
-1.189065 -1.081456 0.090733
-1.122644 -0.110164 0.157154
-1.122644 -1.081457 0.157154
-1.031911 -0.110164 0.181465
-1.031912 -1.081457 0.181465
-0.941179 -0.110164 0.157154
-0.941179 -1.081457 0.157154
-0.874758 -0.110164 0.090733
-0.874758 -1.081457 0.090733
-0.850446 -0.110164 0.000000
-0.850446 -1.081457 0.000000
-0.874758 -0.110164 -0.090733
-0.874758 -1.081457 -0.090733
-0.941179 -0.110164 -0.157154
-0.941179 -1.081457 -0.157154
-1.031911 -0.110164 -0.181465
-1.031912 -1.081457 -0.181465
-1.122644 -0.110164 -0.157154
-0.941179 -1.961376 0.157154
-1.189065 -1.081456 -0.090733
-1.189065 -0.110164 -0.090733
-1.122644 -1.081457 -0.157154
-0.941179 -1.961376 -0.157153
-0.850446 -1.961376 0.000000
-1.122644 -1.961376 0.157154
-1.189065 -1.961376 -0.090733
-1.213377 -1.961376 0.000000
-1.189065 -1.961376 0.090733
-1.031911 -1.961376 0.181465
-1.122644 -1.961376 -0.157154
-1.031911 -1.961376 -0.181465
-0.874758 -1.961376 -0.090733
-0.874758 -1.961376 0.090733
-0.973203 0.256079 0.000000
-0.001910 0.230221 0.096503
-0.001910 0.256079 0.000000
-0.973203 0.230221 0.096503
-0.001910 0.159577 0.167147
-0.973203 0.159577 0.167147
-0.001910 0.063074 0.193005
-0.973203 0.063074 0.193005
-0.001910 -0.033428 0.167147
-0.973203 -0.033428 0.167147
-0.001910 -0.104073 0.096503
-0.973203 -0.104073 0.096503
-0.001910 -0.129931 0.000000
-0.973203 -0.129931 0.000000
-0.001910 -0.104073 -0.096502
-0.973203 -0.104073 -0.096502
-0.001910 -0.033428 -0.167147
-0.973203 -0.033428 -0.167147
-0.001910 0.063074 -0.193005
-0.973203 0.063074 -0.193005
-0.001910 0.159577 -0.167147
-0.973203 0.159577 -0.167147
-0.973203 0.230221 -0.096503
-0.001910 0.230221 -0.096503
3 0 1 2
3 3 4 5
3 5 0 2
3 4 6 0
3 7 1 6
3 2 3 5
3 0 6 1
3 3 7 4
3 5 4 0
3 4 7 6
3 7 3 1
3 2 1 3
3 8 9 10
3 11 12 9
3 13 14 12
3 15 16 14
3 17 18 16
3 19 20 18
3 21 22 20
3 23 24 22
3 25 26 24
3 27 28 26
3 8 29 21
3 30 10 31
3 29 31 28
3 22 26 31
3 8 11 9
3 11 13 12
3 13 15 14
3 15 17 16
3 17 19 18
3 19 21 20
3 21 23 22
3 23 25 24
3 25 27 26
3 27 29 28
3 13 11 8
3 8 30 29
3 29 27 21
3 27 25 21
3 25 23 21
3 21 19 17
3 17 15 21
3 15 13 21
3 13 8 21
3 30 8 10
3 29 30 31
3 31 10 9
3 9 12 14
3 14 16 18
3 18 20 22
3 22 24 26
3 26 28 31
3 31 9 14
3 14 18 31
3 18 22 31
3 32 33 34
3 35 36 37
3 38 32 34
3 35 39 32
3 40 33 39
3 34 41 38
3 42 43 44
3 40 44 41
3 38 44 36
3 40 37 42
3 45 46 47
3 44 45 36
3 37 46 42
3 36 47 37
3 45 43 46
3 32 39 33
3 35 40 39
3 40 41 33
3 42 46 43
3 40 42 44
3 35 38 36
3 38 35 32
3 34 33 41
3 36 45 47
3 48 49 50
3 51 52 49
3 53 54 52
3 55 56 54
3 57 58 56
3 59 60 58
3 61 62 60
3 63 64 62
3 65 66 64
3 67 68 66
3 55 69 57
3 70 50 71
3 72 71 68
3 58 62 71
3 73 74 75
3 48 76 77
3 51 77 78
3 55 75 79
3 72 76 70
3 53 78 75
3 67 80 72
3 65 81 67
3 63 73 65
3 61 82 63
3 59 74 61
3 57 83 59
3 48 51 49
3 51 53 52
3 53 55 54
3 55 57 56
3 57 59 58
3 59 61 60
3 61 63 62
3 63 65 64
3 65 67 66
3 67 72 68
3 55 79 69
3 70 48 50
3 72 70 71
3 71 50 49
3 49 52 54
3 54 56 58
3 58 60 62
3 62 64 71
3 64 66 71
3 66 68 71
3 71 49 54
3 54 58 71
3 75 78 77
3 77 76 75
3 76 80 75
3 80 81 73
3 73 82 74
3 74 83 75
3 83 69 75
3 69 79 75
3 80 73 75
3 48 70 76
3 51 48 77
3 55 53 75
3 72 80 76
3 53 51 78
3 67 81 80
3 65 73 81
3 63 82 73
3 61 74 82
3 59 83 74
3 57 69 83
3 84 85 86
3 87 88 85
3 89 90 88
3 91 92 90
3 93 94 92
3 95 96 94
3 97 98 96
3 99 100 98
3 101 102 100
3 103 104 102
3 93 89 105
3 106 86 107
3 105 107 104
3 98 102 107
3 84 87 85
3 87 89 88
3 89 91 90
3 91 93 92
3 93 95 94
3 95 97 96
3 97 99 98
3 99 101 100
3 101 103 102
3 103 105 104
3 89 87 84
3 84 106 89
3 106 105 89
3 105 103 101
3 101 99 105
3 99 97 105
3 97 95 93
3 93 91 89
3 97 93 105
3 106 84 86
3 105 106 107
3 107 86 85
3 85 88 90
3 90 92 94
3 94 96 98
3 98 100 102
3 102 104 107
3 107 85 98
3 85 90 98
3 90 94 98
3 38 41 44
3 40 35 37
3 44 43 45
3 37 47 46
