ply
format ascii 1.0
comment Created by Blender 2.81 (sub 16) - www.blender.org, source file: ''
element vertex 40
property float x
property float y
property float z
element face 68
property list uchar uint vertex_indices
end_header
-0.346890 0.479120 0.275292
-0.175049 0.479120 -0.275292
-0.175049 0.479120 0.275292
-0.175049 0.970798 0.275292
-0.346890 1.074062 0.200226
-0.346890 0.970798 0.275292
-0.346890 0.479120 -0.275292
-0.346890 0.970798 -0.275292
-0.175049 0.970798 -0.275292
-0.346890 1.074062 -0.200226
-0.175049 1.148424 -0.072785
-0.175049 1.074062 -0.200226
-0.175049 1.074062 0.200226
-0.346890 1.148424 0.072785
-0.175049 1.148424 0.072785
-0.346890 1.148424 -0.072785
0.228346 0.479120 -0.275292
0.400187 0.479120 0.275292
0.228346 0.479120 0.275292
0.400187 1.074062 0.200226
0.228346 0.970798 0.275292
0.400187 0.970798 0.275292
0.400187 0.479120 -0.275292
0.400187 0.970798 -0.275292
0.228346 0.970798 -0.275292
0.228346 1.148424 -0.072785
0.400187 1.074062 -0.200226
0.228346 1.074062 -0.200226
0.228346 1.074062 0.200226
0.400187 1.148424 0.072785
0.228346 1.148424 0.072785
0.400187 1.148424 -0.072785
1.136698 0.009569 1.445202
-1.095059 0.009569 -1.445202
1.136698 0.009569 -1.445202
1.136698 0.602165 -1.445202
-1.095060 0.602165 1.445201
1.136697 0.602165 1.445203
-1.095060 0.009569 1.445202
-1.095059 0.602165 -1.445203
3 0 1 2
3 3 4 5
3 3 0 2
3 5 6 0
3 7 1 6
3 2 8 3
3 9 10 11
3 7 11 8
3 8 12 3
3 5 9 7
3 10 13 14
3 11 14 12
3 4 15 9
3 12 13 4
3 16 17 18
3 19 20 21
3 17 20 18
3 22 21 17
3 16 23 22
3 24 18 20
3 25 26 27
3 27 23 24
3 28 24 20
3 26 21 23
3 29 25 30
3 30 27 28
3 31 19 26
3 29 28 19
3 0 6 1
3 3 12 4
3 3 5 0
3 5 7 6
3 7 8 1
3 2 1 8
3 9 15 10
3 7 9 11
3 8 11 12
3 5 4 9
3 10 15 13
3 11 10 14
3 4 13 15
3 12 14 13
3 16 22 17
3 19 28 20
3 17 21 20
3 22 23 21
3 16 24 23
3 24 16 18
3 25 31 26
3 27 26 23
3 28 27 24
3 26 19 21
3 29 31 25
3 30 25 27
3 31 29 19
3 29 30 28
3 32 33 34
3 35 36 37
3 37 38 32
3 36 33 38
3 33 35 34
3 32 35 37
3 32 38 33
3 35 39 36
3 37 36 38
3 36 39 33
3 33 39 35
3 32 34 35
