ply
format ascii 1.0
comment Created by Blender 2.81 (sub 16) - www.blender.org, source file: ''
element vertex 116
property float x
property float y
property float z
element face 208
property list uchar uint vertex_indices
end_header
-0.480085 -0.846781 0.464933
0.521723 -0.846781 -0.358993
0.521723 -0.846781 0.464933
0.521723 -0.022856 -0.358993
-0.480086 -0.022856 0.464932
0.521723 -0.022856 0.464933
-0.480085 -0.846781 -0.358993
-0.480085 -0.022856 -0.358993
0.470221 -2.593095 -0.087861
-0.416924 -2.663511 -0.068993
-0.416924 -2.593095 -0.087861
0.470221 -2.663511 -0.068993
-0.416924 -2.715058 -0.017445
0.470221 -2.715058 -0.017445
-0.416924 -2.733926 0.052970
0.470221 -2.733926 0.052970
-0.416924 -2.715058 0.123385
0.470221 -2.715058 0.123385
-0.416924 -2.663511 0.174933
0.470221 -2.663511 0.174933
-0.416924 -2.593095 0.193801
0.470221 -2.593095 0.193801
-0.416924 -2.522680 0.174933
0.470221 -2.522680 0.174933
-0.416924 -2.471133 0.123385
0.470221 -2.471133 0.123386
-0.416924 -2.452265 0.052970
0.470221 -2.452265 0.052970
-0.416924 -2.471133 -0.017445
0.470221 -2.471133 -0.017445
0.470221 -2.522680 -0.068993
-0.416924 -2.522680 -0.068993
-0.140807 -1.508030 0.052970
-0.116495 -0.536737 0.143703
-0.140807 -0.536737 0.052970
-0.116495 -1.508030 0.143703
-0.050074 -0.536737 0.210124
-0.050074 -1.508030 0.210124
0.040658 -0.536737 0.234435
0.040658 -1.508030 0.234435
0.131391 -0.536737 0.210124
0.131391 -1.508030 0.210124
0.197812 -0.536737 0.143703
0.197811 -1.508030 0.143703
0.222124 -0.536737 0.052970
0.222123 -1.508030 0.052970
0.197812 -0.536737 -0.037763
0.197811 -1.508030 -0.037763
0.131391 -0.536737 -0.104183
0.131391 -1.508030 -0.104183
0.040658 -0.536737 -0.128495
0.040658 -1.508030 -0.128495
-0.050074 -0.536737 -0.104184
0.040658 -2.387949 0.234435
0.131391 -2.387949 0.210124
-0.116495 -1.508030 -0.037763
-0.116495 -0.536737 -0.037763
-0.050074 -1.508030 -0.104184
0.131391 -2.387949 -0.104183
0.222123 -2.387949 0.052970
-0.050074 -2.387949 0.210124
-0.140807 -2.387949 0.052970
-0.116495 -2.387949 0.143703
-0.050074 -2.387949 -0.104183
-0.116495 -2.387949 -0.037763
0.040658 -2.387949 -0.128495
0.197811 -2.387949 -0.037762
0.197811 -2.387949 0.143703
-0.185845 -2.218546 -0.222322
0.239144 -2.218546 0.328262
0.239144 -2.218546 -0.222322
-0.185845 -2.710225 -0.222322
0.239144 -2.813488 -0.147256
-0.185845 -2.813488 -0.147256
0.239144 -2.710225 -0.222322
-0.185845 -2.218546 0.328262
-0.185845 -2.710225 0.328262
0.239144 -2.710225 0.328262
-0.185845 -2.813488 0.253196
0.239144 -2.887851 0.125755
0.239144 -2.813488 0.253196
0.239144 -2.887851 -0.019815
-0.185845 -2.887851 0.125755
-0.185845 -2.887851 -0.019815
-0.346890 -0.090670 0.328262
-0.175049 -0.090670 -0.222322
-0.175049 -0.090670 0.328262
-0.175049 0.401008 0.328262
-0.346890 0.504272 0.253196
-0.346890 0.401008 0.328262
-0.346890 -0.090670 -0.222322
-0.346890 0.401008 -0.222322
-0.175049 0.401008 -0.222322
-0.346890 0.504272 -0.147256
-0.175049 0.578635 -0.019815
-0.175049 0.504272 -0.147256
-0.175049 0.504272 0.253196
-0.346890 0.578635 0.125755
-0.175049 0.578635 0.125755
-0.346890 0.578635 -0.019815
0.228346 -0.090670 -0.222322
0.400187 -0.090670 0.328262
0.228346 -0.090670 0.328262
0.400187 0.504272 0.253196
0.228346 0.401008 0.328262
0.400187 0.401008 0.328262
0.400187 -0.090670 -0.222322
0.400187 0.401008 -0.222322
0.228346 0.401008 -0.222322
0.228346 0.578635 -0.019815
0.400187 0.504272 -0.147256
0.228346 0.504272 -0.147256
0.228346 0.504272 0.253196
0.400187 0.578635 0.125755
0.228346 0.578635 0.125755
0.400187 0.578635 -0.019815
3 0 1 2
3 3 4 5
3 5 0 2
3 4 6 0
3 7 1 6
3 2 3 5
3 0 6 1
3 3 7 4
3 5 4 0
3 4 7 6
3 7 3 1
3 2 1 3
3 8 9 10
3 11 12 9
3 13 14 12
3 15 16 14
3 17 18 16
3 19 20 18
3 21 22 20
3 23 24 22
3 25 26 24
3 27 28 26
3 17 13 29
3 30 10 31
3 29 31 28
3 14 22 31
3 8 11 9
3 11 13 12
3 13 15 14
3 15 17 16
3 17 19 18
3 19 21 20
3 21 23 22
3 23 25 24
3 25 27 26
3 27 29 28
3 13 11 8
3 8 30 29
3 29 27 25
3 25 23 21
3 21 19 17
3 17 15 13
3 13 8 29
3 29 25 21
3 21 17 29
3 30 8 10
3 29 30 31
3 31 10 9
3 9 12 31
3 12 14 31
3 14 16 22
3 16 18 22
3 18 20 22
3 22 24 26
3 26 28 22
3 28 31 22
3 32 33 34
3 35 36 33
3 37 38 36
3 39 40 38
3 41 42 40
3 43 44 42
3 45 46 44
3 47 48 46
3 49 50 48
3 51 52 50
3 41 53 54
3 55 34 56
3 57 56 52
3 42 46 56
3 58 59 60
3 55 61 32
3 35 61 62
3 39 60 53
3 55 63 64
3 35 60 37
3 51 63 57
3 49 65 51
3 47 58 49
3 45 66 47
3 43 59 45
3 41 67 43
3 32 35 33
3 35 37 36
3 37 39 38
3 39 41 40
3 41 43 42
3 43 45 44
3 45 47 46
3 47 49 48
3 49 51 50
3 51 57 52
3 41 39 53
3 55 32 34
3 57 55 56
3 56 34 33
3 33 36 38
3 38 40 42
3 42 44 46
3 46 48 56
3 48 50 56
3 50 52 56
3 56 33 38
3 38 42 56
3 60 62 61
3 61 64 60
3 64 63 60
3 63 65 58
3 58 66 59
3 59 67 60
3 67 54 60
3 54 53 60
3 63 58 60
3 55 64 61
3 35 32 61
3 39 37 60
3 55 57 63
3 35 62 60
3 51 65 63
3 49 58 65
3 47 66 58
3 45 59 66
3 43 67 59
3 41 54 67
3 68 69 70
3 71 72 73
3 74 68 70
3 71 75 68
3 76 69 75
3 70 77 74
3 78 79 80
3 76 80 77
3 77 72 74
3 71 78 76
3 81 82 83
3 80 81 72
3 73 82 78
3 72 83 73
3 68 75 69
3 71 74 72
3 74 71 68
3 71 76 75
3 76 77 69
3 70 69 77
3 78 82 79
3 76 78 80
3 77 80 72
3 71 73 78
3 81 79 82
3 80 79 81
3 73 83 82
3 72 81 83
3 84 85 86
3 87 88 89
3 87 84 86
3 89 90 84
3 91 85 90
3 86 92 87
3 93 94 95
3 91 95 92
3 92 96 87
3 89 93 91
3 94 97 98
3 95 98 96
3 88 99 93
3 96 97 88
3 100 101 102
3 103 104 105
3 101 104 102
3 106 105 101
3 100 107 106
3 108 102 104
3 109 110 111
3 111 107 108
3 112 108 104
3 110 105 107
3 113 109 114
3 114 111 112
3 115 103 110
3 113 112 103
3 84 90 85
3 87 96 88
3 87 89 84
3 89 91 90
3 91 92 85
3 86 85 92
3 93 99 94
3 91 93 95
3 92 95 96
3 89 88 93
3 94 99 97
3 95 94 98
3 88 97 99
3 96 98 97
3 100 106 101
3 103 112 104
3 101 105 104
3 106 107 105
3 100 108 107
3 108 100 102
3 109 115 110
3 111 110 107
3 112 111 108
3 110 103 105
3 113 115 109
3 114 109 111
3 115 113 103
3 113 114 112
